<svg width="307" height="54" viewBox="0 0 307 54" fill="none" xmlns="http://www.w3.org/2000/svg">
<path d="M14.7591 31.3393V50.625L20.6224 51.2449V52.898H0V51.2449L5.86322 50.625V9.16071L0 8.40305V6.81888H34.3706V16.6684H32.214L29.6531 9.36734L14.7591 9.16071V28.8597H27.9009L29.9901 23.7627H31.9445V36.574H29.9227L27.9009 31.3393H14.7591Z" fill="white"/>
<path d="M69.104 48.6964C65.959 52.0025 61.6683 53.6556 56.2319 53.6556C50.7955 53.6556 46.5048 52.0025 43.3597 48.6964C40.2147 45.3903 38.6422 41.1888 38.6422 36.0918C38.6422 30.9949 40.2147 26.7934 43.3597 23.4872C46.5048 20.1811 50.7955 18.5281 56.2319 18.5281C61.6683 18.5281 65.959 20.1811 69.104 23.4872C72.249 26.7934 73.8215 30.9949 73.8215 36.0918C73.8215 41.1888 72.249 45.3903 69.104 48.6964ZM48.0099 36.0918C48.0099 46.699 50.7505 52.0025 56.2319 52.0025C61.7132 52.0025 64.4539 46.699 64.4539 36.0918C64.4539 30.903 63.8473 26.977 62.6343 24.3138C61.4212 21.6046 59.287 20.25 56.2319 20.25C53.1767 20.25 51.0426 21.6046 49.8295 24.3138C48.6164 26.977 48.0099 30.903 48.0099 36.0918Z" fill="white"/>
<path d="M109.514 48.6964C106.369 52.0025 102.078 53.6556 96.6416 53.6556C91.2052 53.6556 86.9145 52.0025 83.7694 48.6964C80.6244 45.3903 79.0519 41.1888 79.0519 36.0918C79.0519 30.9949 80.6244 26.7934 83.7694 23.4872C86.9145 20.1811 91.2052 18.5281 96.6416 18.5281C102.078 18.5281 106.369 20.1811 109.514 23.4872C112.659 26.7934 114.231 30.9949 114.231 36.0918C114.231 41.1888 112.659 45.3903 109.514 48.6964ZM88.4196 36.0918C88.4196 46.699 91.1602 52.0025 96.6416 52.0025C102.123 52.0025 104.864 46.699 104.864 36.0918C104.864 30.903 104.257 26.977 103.044 24.3138C101.831 21.6046 99.6967 20.25 96.6416 20.25C93.5864 20.25 91.4523 21.6046 90.2392 24.3138C89.0261 26.977 88.4196 30.903 88.4196 36.0918Z" fill="white"/>
<path d="M133.749 53.9311C129.66 53.9311 126.268 52.5306 123.573 49.7296C120.877 46.9286 119.529 42.7041 119.529 37.0561C119.529 31.4081 121.124 26.9541 124.314 23.6939C127.549 20.4337 131.84 18.8036 137.186 18.8036C139.972 18.8036 142.6 19.4694 145.071 20.801V3.30612L139.275 2.89285V1.17092L153.697 0V51.3138L159.426 51.5893L159.493 53.1735L145.408 54L145.543 47.801H145.138C144.015 49.7296 142.42 51.2449 140.354 52.3469C138.287 53.4031 136.085 53.9311 133.749 53.9311ZM145.004 42.2908V23.3495C143.207 21.6505 140.915 20.801 138.13 20.801C134.58 20.801 132.154 22.477 130.851 25.8291C129.773 28.7678 129.234 32.5102 129.234 37.0561C129.234 46.8367 131.368 51.727 135.636 51.727C138.152 51.727 140.331 50.625 142.173 48.4209C144.06 46.2168 145.004 44.1735 145.004 42.2908Z" fill="white"/>
<path d="M162.783 17.0127V6.88775L202.006 6.74999V8.8852L172.892 49.3852L197.221 49.523L199.58 41.9464H201.804V52.0025L161.839 52.1403V50.2117L191.223 9.50509L167.366 9.36734L165.007 17.0127H162.783Z" fill="white"/>
<path d="M229.503 28.8597C229.503 23.2576 227.594 20.4566 223.775 20.4566C219.776 20.4566 217.35 24.0382 216.496 31.2015H229.369C229.458 30.2831 229.503 29.5025 229.503 28.8597ZM223.168 53.6556C218.361 53.6556 214.452 52.0485 211.442 48.8342C208.477 45.6199 206.994 41.3724 206.994 36.0918C206.994 30.8112 208.544 26.5638 211.644 23.3495C214.789 20.1352 218.765 18.5281 223.573 18.5281C228.38 18.5281 231.974 19.5842 234.356 21.6964C236.737 23.7627 237.928 26.6556 237.928 30.375C237.928 31.4311 237.838 32.5331 237.658 33.6811H216.294V36.0918C216.294 41.2347 216.923 45.1378 218.181 47.801C219.439 50.4184 221.326 51.727 223.842 51.727C226.403 51.727 228.717 51.199 230.784 50.1429C232.896 49.0408 234.535 47.5025 235.704 45.5281C236.692 45.8495 237.186 46.3316 237.186 46.9745C237.186 48.1225 236.13 49.4541 234.019 50.9694C232.985 51.7041 231.503 52.3469 229.571 52.898C227.684 53.4031 225.55 53.6556 223.168 53.6556Z" fill="white"/>
<path d="M255.189 27.4133C255.953 24.9337 257.346 22.8214 259.368 21.0765C261.434 19.3316 263.299 18.4592 264.961 18.4592C266.669 18.4592 267.814 18.8954 268.398 19.7678C268.982 20.5944 269.274 21.2832 269.274 21.8342C269.274 23.7168 268.6 25.0714 267.253 25.8979C266.354 25.1632 265.006 24.7959 263.209 24.7959C261.457 24.7959 259.705 25.3699 257.952 26.5178C256.2 27.6199 255.324 28.8367 255.324 30.1684V50.9005L261.389 51.3138V52.898H242.587V51.3138L247.035 50.9694V21.5587L241.576 21.2832V19.699L255.324 18.9413L254.92 27.4133H255.189Z" fill="white"/>
<path d="M302.282 48.6964C299.137 52.0025 294.847 53.6556 289.41 53.6556C283.974 53.6556 279.683 52.0025 276.538 48.6964C273.393 45.3903 271.821 41.1888 271.821 36.0918C271.821 30.9949 273.393 26.7934 276.538 23.4872C279.683 20.1811 283.974 18.5281 289.41 18.5281C294.847 18.5281 299.137 20.1811 302.282 23.4872C305.427 26.7934 307 30.9949 307 36.0918C307 41.1888 305.427 45.3903 302.282 48.6964ZM281.188 36.0918C281.188 46.699 283.929 52.0025 289.41 52.0025C294.892 52.0025 297.632 46.699 297.632 36.0918C297.632 30.903 297.026 26.977 295.813 24.3138C294.6 21.6046 292.465 20.25 289.41 20.25C286.355 20.25 284.221 21.6046 283.008 24.3138C281.795 26.977 281.188 30.903 281.188 36.0918Z" fill="white"/>
</svg>
